<mxfile host="65bd71144e">
    <diagram id="cefG2fWqzmI7_IfLwOcJ" name="Page-1">
        <mxGraphModel dx="759" dy="307" grid="1" gridSize="10" guides="1" tooltips="1" connect="1" arrows="1" fold="1" page="0" pageScale="1" pageWidth="850" pageHeight="1100" math="0" shadow="0">
            <root>
                <mxCell id="0"/>
                <mxCell id="1" parent="0"/>
                <mxCell id="10" value="client" style="shape=umlLifeline;perimeter=lifelinePerimeter;whiteSpace=wrap;html=1;container=1;collapsible=0;recursiveResize=0;outlineConnect=0;size=30;" vertex="1" parent="1">
                    <mxGeometry x="90" y="140" width="100" height="300" as="geometry"/>
                </mxCell>
                <mxCell id="15" value="" style="html=1;points=[];perimeter=orthogonalPerimeter;" vertex="1" parent="10">
                    <mxGeometry x="45" y="50" width="10" height="40" as="geometry"/>
                </mxCell>
                <mxCell id="25" value="" style="html=1;points=[];perimeter=orthogonalPerimeter;" vertex="1" parent="10">
                    <mxGeometry x="45" y="200" width="10" height="40" as="geometry"/>
                </mxCell>
                <mxCell id="36" value="" style="html=1;points=[];perimeter=orthogonalPerimeter;" vertex="1" parent="10">
                    <mxGeometry x="45" y="260" width="10" height="40" as="geometry"/>
                </mxCell>
                <mxCell id="11" value="&lt;div style=&quot;text-align: start;&quot;&gt;&lt;span style=&quot;background-color: initial; font-size: 0px;&quot;&gt;&lt;font face=&quot;monospace&quot; color=&quot;rgba(0, 0, 0, 0)&quot;&gt;youbooking&lt;/font&gt;&lt;/span&gt;&lt;/div&gt;" style="shape=umlLifeline;perimeter=lifelinePerimeter;whiteSpace=wrap;html=1;container=1;collapsible=0;recursiveResize=0;outlineConnect=0;size=30;" vertex="1" parent="1">
                    <mxGeometry x="300" y="140" width="100" height="300" as="geometry"/>
                </mxCell>
                <mxCell id="12" value="youbooking" style="text;whiteSpace=wrap;html=1;" vertex="1" parent="11">
                    <mxGeometry x="20" width="90" height="20" as="geometry"/>
                </mxCell>
                <mxCell id="19" value="" style="html=1;points=[];perimeter=orthogonalPerimeter;" vertex="1" parent="11">
                    <mxGeometry x="45" y="50" width="10" height="30" as="geometry"/>
                </mxCell>
                <mxCell id="26" value="" style="html=1;points=[];perimeter=orthogonalPerimeter;" vertex="1" parent="11">
                    <mxGeometry x="45" y="205" width="10" height="30" as="geometry"/>
                </mxCell>
                <mxCell id="13" value="&lt;div style=&quot;text-align: start;&quot;&gt;&lt;span style=&quot;background-color: initial; font-size: 0px;&quot;&gt;&lt;font face=&quot;monospace&quot; color=&quot;rgba(0, 0, 0, 0)&quot;&gt;youbooking&lt;/font&gt;&lt;/span&gt;&lt;/div&gt;" style="shape=umlLifeline;perimeter=lifelinePerimeter;whiteSpace=wrap;html=1;container=1;collapsible=0;recursiveResize=0;outlineConnect=0;size=30;" vertex="1" parent="1">
                    <mxGeometry x="490" y="140" width="205" height="300" as="geometry"/>
                </mxCell>
                <mxCell id="14" value="admin" style="text;whiteSpace=wrap;html=1;" vertex="1" parent="13">
                    <mxGeometry x="20" width="90" height="20" as="geometry"/>
                </mxCell>
                <mxCell id="34" value="if meet req" style="shape=umlFrame;whiteSpace=wrap;html=1;" vertex="1" parent="13">
                    <mxGeometry x="-110" y="180" width="230" height="70" as="geometry"/>
                </mxCell>
                <mxCell id="28" value="" style="html=1;points=[];perimeter=orthogonalPerimeter;" vertex="1" parent="13">
                    <mxGeometry x="97.5" y="190" width="10" height="30" as="geometry"/>
                </mxCell>
                <mxCell id="18" value="book a room" style="html=1;verticalAlign=bottom;endArrow=block;exitX=1.067;exitY=0.514;exitDx=0;exitDy=0;exitPerimeter=0;entryX=-0.109;entryY=0.667;entryDx=0;entryDy=0;entryPerimeter=0;" edge="1" parent="1" source="15" target="19">
                    <mxGeometry x="-0.0457" width="80" relative="1" as="geometry">
                        <mxPoint x="150" y="210" as="sourcePoint"/>
                        <mxPoint x="350" y="210" as="targetPoint"/>
                        <Array as="points">
                            <mxPoint x="240" y="210"/>
                        </Array>
                        <mxPoint as="offset"/>
                    </mxGeometry>
                </mxCell>
                <mxCell id="20" value="if available" style="shape=umlFrame;whiteSpace=wrap;html=1;" vertex="1" parent="1">
                    <mxGeometry x="90" y="220" width="300" height="70" as="geometry"/>
                </mxCell>
                <mxCell id="21" value="" style="html=1;points=[];perimeter=orthogonalPerimeter;" vertex="1" parent="1">
                    <mxGeometry x="345" y="230" width="10" height="50" as="geometry"/>
                </mxCell>
                <mxCell id="22" value="room booked" style="html=1;verticalAlign=bottom;endArrow=none;entryX=-0.055;entryY=0.772;entryDx=0;entryDy=0;entryPerimeter=0;startArrow=block;startFill=1;endFill=0;exitX=0.918;exitY=0.404;exitDx=0;exitDy=0;exitPerimeter=0;" edge="1" parent="1" source="23" target="21">
                    <mxGeometry x="-0.0457" width="80" relative="1" as="geometry">
                        <mxPoint x="140" y="260" as="sourcePoint"/>
                        <mxPoint x="345.00000000000006" y="260.00999999999993" as="targetPoint"/>
                        <Array as="points">
                            <mxPoint x="241" y="270"/>
                        </Array>
                        <mxPoint as="offset"/>
                    </mxGeometry>
                </mxCell>
                <mxCell id="23" value="" style="html=1;points=[];perimeter=orthogonalPerimeter;" vertex="1" parent="1">
                    <mxGeometry x="135" y="260" width="10" height="20" as="geometry"/>
                </mxCell>
                <mxCell id="24" value="apply to be prop" style="html=1;verticalAlign=bottom;endArrow=block;exitX=1.009;exitY=0.255;exitDx=0;exitDy=0;exitPerimeter=0;entryX=0.079;entryY=0.192;entryDx=0;entryDy=0;entryPerimeter=0;" edge="1" parent="1" source="25" target="26">
                    <mxGeometry x="-0.0457" width="80" relative="1" as="geometry">
                        <mxPoint x="150" y="310" as="sourcePoint"/>
                        <mxPoint x="340" y="310" as="targetPoint"/>
                        <Array as="points"/>
                        <mxPoint as="offset"/>
                    </mxGeometry>
                </mxCell>
                <mxCell id="30" value="give a role" style="html=1;verticalAlign=bottom;endArrow=none;exitX=0.884;exitY=0.511;exitDx=0;exitDy=0;exitPerimeter=0;startArrow=block;startFill=1;endFill=0;" edge="1" parent="1" source="26" target="28">
                    <mxGeometry width="80" relative="1" as="geometry">
                        <mxPoint x="380" y="349.90000000000003" as="sourcePoint"/>
                        <mxPoint x="550" y="350" as="targetPoint"/>
                        <Array as="points">
                            <mxPoint x="470" y="360"/>
                        </Array>
                    </mxGeometry>
                </mxCell>
            </root>
        </mxGraphModel>
    </diagram>
</mxfile>